<?xml version="1.0" encoding="UTF-8"?>
<svg version="1.1" xmlns="http://www.w3.org/2000/svg" width="1024" height="1024">
<path d="M0 0 C0.86453293 -0.00686325 1.72906586 -0.0137265 2.61979675 -0.02079773 C5.45511672 -0.03898052 8.28987883 -0.0352405 11.12524414 -0.02954102 C13.11007363 -0.03410684 15.09490154 -0.03941361 17.07972717 -0.04542542 C21.23127685 -0.05433976 25.38263398 -0.05195241 29.53417969 -0.04199219 C34.83789983 -0.03050369 40.14095405 -0.05072095 45.44458675 -0.07990932 C49.54114459 -0.09830988 53.63754395 -0.09797119 57.73413277 -0.0922718 C59.68883765 -0.09211907 61.64355361 -0.09812379 63.59821892 -0.11056328 C66.33803221 -0.1255449 69.07662938 -0.11474412 71.81640625 -0.09765625 C72.61304688 -0.10732422 73.4096875 -0.11699219 74.23046875 -0.12695312 C82.92642409 -0.01414616 89.81392256 3.5580213 96.11352539 9.40405273 C101.68394087 15.39576015 105.06724835 20.94803087 105.13111877 29.18693542 C105.145802 30.62875435 105.145802 30.62875435 105.16078186 32.09970093 C105.16653732 33.14912872 105.17229279 34.19855652 105.17822266 35.27978516 C105.18812225 36.39159653 105.19802185 37.5034079 105.20822144 38.64891052 C105.23995849 42.35242568 105.26470824 46.05595254 105.28930664 49.75952148 C105.30993146 52.37169176 105.33092913 54.98385911 105.35227966 57.59602356 C105.39664642 63.11005591 105.43732706 68.62410565 105.47558594 74.13818359 C105.51414525 79.69322395 105.5555617 85.24823087 105.60058594 90.80322266 C105.88315251 125.67040876 106.04235677 160.53557854 105.97290039 195.40405273 C106.96290039 195.40405273 107.95290039 195.40405273 108.97290039 195.40405273 C109.24618164 194.65639648 109.51946289 193.90874023 109.80102539 193.13842773 C110.90049173 190.57300627 111.98925065 188.81664674 113.72290039 186.65405273 C114.6471582 185.49776367 114.6471582 185.49776367 115.59008789 184.31811523 C119.89607667 179.05210273 124.21264543 173.79509003 128.54711914 168.55249023 C131.26551914 165.26425891 133.96747341 161.96319905 136.66040039 158.65405273 C139.90709362 154.67715526 143.21016792 150.75262442 146.53540039 146.84155273 C150.35356673 142.34794003 154.09148607 137.80413192 157.75805664 133.18530273 C165.06872085 124.00506832 172.48933714 114.91862619 180.09375 105.98022461 C185.51011172 99.60965962 190.77657581 93.11956788 196.03540039 86.61889648 C201.22796002 80.20537738 206.43514485 73.81203365 211.78540039 67.52905273 C215.51820173 63.14525825 219.16923436 58.70888253 222.74633789 54.19702148 C225.63051044 50.57915592 228.55189806 46.9922027 231.47290039 43.40405273 C236.80041375 36.85369634 236.80041375 36.85369634 242.09790039 30.27905273 C242.71149414 29.5172168 243.32508789 28.75538086 243.95727539 27.97045898 C245.52267598 25.97730358 247.04401284 23.96806344 248.55102539 21.93139648 C256.96485386 10.6713427 265.04226451 3.96692803 278.97290039 0.40405273 C282.91814258 -0.09789566 286.79143124 -0.14507902 290.76489258 -0.11352539 C291.87545517 -0.12053467 292.98601776 -0.12754395 294.13023376 -0.13476562 C297.76034369 -0.15221167 301.38965911 -0.1407733 305.01977539 -0.12719727 C307.56178943 -0.12989524 310.10380246 -0.13378021 312.64581299 -0.13879395 C317.95465953 -0.14467023 323.26322676 -0.13657086 328.57202148 -0.11743164 C334.69119146 -0.0956243 340.80982899 -0.10275577 346.92898631 -0.12473726 C352.84610687 -0.1451334 358.76306328 -0.14290409 364.68021393 -0.13121033 C367.1855807 -0.12854842 369.69096115 -0.13179385 372.19631195 -0.14112854 C375.69740076 -0.15131624 379.19747302 -0.13576226 382.69848633 -0.11352539 C383.72620651 -0.12162231 384.7539267 -0.12971924 385.81278992 -0.13806152 C393.22703482 -0.05106585 398.66037659 1.4438042 404.25024414 6.43920898 C404.7980957 7.10823242 405.34594727 7.77725586 405.91040039 8.46655273 C406.47629883 9.1381543 407.04219727 9.80975586 407.62524414 10.50170898 C410.6299045 14.74307013 410.64243415 19.4171806 409.97290039 24.40405273 C407.81722098 30.66808975 404.30617439 35.54775478 399.84399414 40.36499023 C395.40803974 45.19916184 391.46247734 50.48141725 387.44165039 55.66186523 C382.17881469 62.42905226 376.78105677 69.03048495 371.16870117 75.51123047 C367.98412171 79.19686564 364.94356616 82.95281604 361.98852539 86.82592773 C359.1733216 90.42676979 356.25945173 93.94342654 353.34790039 97.46655273 C348.69845236 103.09291559 344.06797161 108.73317933 339.47290039 114.40405273 C334.3217373 120.75825758 329.13419577 127.08159298 323.92871094 133.39135742 C320.70213927 137.30251791 317.48679111 141.22221992 314.28540039 145.15405273 C310.57576648 149.69800951 306.78768017 154.17109692 302.98779297 158.6394043 C299.5998454 162.63444074 296.31944766 166.70431273 293.06665039 170.81030273 C290.58478581 173.8848514 288.03427762 176.89572084 285.47290039 179.90405273 C281.63262572 184.41784247 277.87280604 188.98067977 274.18774414 193.62280273 C266.86156976 202.82251377 259.42615362 211.92823801 251.79711914 220.87841797 C248.36502233 224.91353622 245.03909794 229.02149822 241.76977539 233.18920898 C239.61919447 235.84003373 237.30718434 238.31045155 234.90649414 240.73608398 C233.77001269 242.42734793 233.77001269 242.42734793 234.05883789 244.75170898 C235.21739191 248.11349607 236.92220446 250.26143036 239.16040039 253.02905273 C240.07656331 254.18103124 240.99049425 255.33478716 241.90258789 256.48999023 C242.64460449 257.4272998 242.64460449 257.4272998 243.40161133 258.38354492 C246.27668893 262.0805838 249.02241635 265.87296623 251.78540039 269.65405273 C256.80231984 276.49784066 261.90325751 283.26763873 267.07983398 289.99121094 C271.09646952 295.22230517 275.01596181 300.51904507 278.91040039 305.84155273 C284.19744693 313.06418096 289.62964847 320.15706933 295.14892578 327.20336914 C298.76132496 331.82246909 302.25984192 336.50073611 305.67602539 341.26733398 C308.91875124 345.6957504 312.26225555 350.04539851 315.59790039 354.40405273 C321.517924 362.14270428 327.34475287 369.94187646 333.10424805 377.80053711 C337.11088355 383.25901848 341.21048496 388.63108487 345.35961914 393.98217773 C348.56982958 398.15557656 351.67214034 402.40815822 354.78540039 406.65405273 C360.44235064 414.36681586 366.208197 421.98740755 372.03540039 429.57202148 C375.19689275 433.68821195 378.30636146 437.84206859 381.41040039 442.00170898 C383.47397897 444.7539984 385.56510264 447.48443812 387.66040039 450.21264648 C394.14216702 458.65731122 400.59693986 467.11598191 406.78540039 475.77905273 C407.27049072 476.44960693 407.75558105 477.12016113 408.25537109 477.81103516 C414.17735704 486.19777309 417.09777883 494.67268463 415.47290039 505.02905273 C413.6721937 511.95013629 407.81005803 517.56007088 401.97290039 521.40405273 C395.44931502 524.37930518 389.99991687 524.83507442 382.88208008 524.79223633 C381.79803391 524.79749329 380.71398773 524.80275024 379.59709167 524.8081665 C376.02950433 524.82132073 372.46236694 524.8126418 368.89477539 524.80249023 C366.40146805 524.80451286 363.90816128 524.80742587 361.41485596 524.81118774 C355.5255146 524.81617021 349.63633481 524.80570477 343.74701715 524.78973544 C337.7459489 524.7753096 331.74515838 524.78969697 325.74409103 524.80588341 C320.59486191 524.81676652 315.44571769 524.81325353 310.2964859 524.80550003 C307.83908291 524.80350868 305.38167203 524.80591956 302.92427826 524.81293869 C299.47641342 524.82062371 296.02912142 524.80884874 292.58129883 524.79223633 C291.58037704 524.79830902 290.57945526 524.80438171 289.54820251 524.81063843 C276.44644333 524.69467105 266.42080038 521.44197658 256.84399414 512.39233398 C250.43455399 505.62878112 245.13596703 497.94735791 239.66430664 490.42749023 C236.10734723 485.55610476 232.43877541 480.77990838 228.72290039 476.02905273 C227.8396106 474.89947144 227.8396106 474.89947144 226.93847656 473.74707031 C225.80097024 472.2936876 224.66304763 470.84063057 223.5246582 469.38793945 C216.28512173 460.13235837 209.19211509 450.76233605 202.07373047 441.41357422 C197.81665537 435.82269231 193.55500517 430.23537208 189.28540039 424.65405273 C188.49552734 423.62151367 188.49552734 423.62151367 187.68969727 422.56811523 C186.11758037 420.51331387 184.54527909 418.45865376 182.97290039 416.40405273 C175.89996577 407.16196703 168.8356115 397.91348954 161.78540039 388.65405273 C155.87036431 380.88650919 149.93360774 373.13658546 143.97290039 365.40405273 C143.20204102 364.39987305 142.43118164 363.39569336 141.63696289 362.36108398 C136.77196386 356.02398977 131.88079936 349.70798803 126.97290039 343.40405273 C118.12412521 332.03289017 118.12412521 332.03289017 114.16040039 326.90405273 C113.37020508 325.88311523 112.58000977 324.86217773 111.76586914 323.81030273 C109.97290039 321.40405273 109.97290039 321.40405273 108.97290039 319.40405273 C108.31290039 319.40405273 107.65290039 319.40405273 106.97290039 319.40405273 C106.9653583 320.33465767 106.95781622 321.2652626 106.95004559 322.22406769 C106.76579373 344.87591769 106.56471669 367.52757082 106.34603405 390.1791153 C106.24066925 401.13327253 106.14075628 412.08742866 106.05371094 423.04174805 C105.97782144 432.59040161 105.89166887 442.13889821 105.79323179 451.68734694 C105.7414756 456.74238923 105.69483236 461.7973613 105.66048241 466.85255432 C105.6279712 471.61326495 105.58171054 476.3736463 105.52502632 481.13412857 C105.50665423 482.87873397 105.49325128 484.62340009 105.48526764 486.36808395 C105.47358304 488.75661889 105.44375965 491.14428837 105.40959167 493.53259277 C105.4105483 494.21744263 105.41150493 494.90229249 105.41249055 495.60789537 C105.22842959 504.85232937 101.51770637 510.63711177 95.32055664 517.19702148 C88.56683984 523.54618952 82.22544553 524.55192962 73.21630859 524.58105469 C71.89112465 524.59091148 71.89112465 524.59091148 70.53916931 524.60096741 C67.61733917 524.62066649 64.69556038 524.63235624 61.77368164 524.64233398 C60.27354051 524.64844728 60.27354051 524.64844728 58.74309349 524.65468407 C53.44836001 524.67553158 48.15365234 524.68983833 42.85888672 524.69921875 C37.4026619 524.71027298 31.94684603 524.74466549 26.49076557 524.78439045 C22.28443161 524.8105937 18.07819451 524.81891395 13.87178612 524.82250023 C11.86124094 524.82735753 9.85069984 524.83894697 7.84023476 524.85753822 C5.01865286 524.88200578 2.19812136 524.88095062 -0.62353516 524.87402344 C-1.44516144 524.8868335 -2.26678772 524.89964355 -3.11331177 524.9128418 C-11.83105418 524.83530252 -18.88567476 521.33739546 -25.23413086 515.47045898 C-31.39293454 508.37240419 -33.18017998 500.67585648 -33.15852737 491.54998493 C-33.16058001 490.74946517 -33.16263264 489.94894541 -33.16474748 489.12416747 C-33.17042997 486.42499223 -33.16895869 483.72586781 -33.1675415 481.02668762 C-33.17012442 479.07861846 -33.17313738 477.13054984 -33.1765449 475.18248194 C-33.18462676 469.81594781 -33.18640514 464.44942703 -33.18714237 459.08288753 C-33.18899087 453.3001786 -33.19653718 447.51747664 -33.20327759 441.73477173 C-33.21686989 429.08398225 -33.22288703 416.43319594 -33.22728825 403.78240037 C-33.23004917 395.88589997 -33.23428625 387.9894008 -33.23879242 380.09290123 C-33.25098629 358.23767194 -33.26132074 336.38244379 -33.26466751 314.52721119 C-33.26488914 313.11380151 -33.26511093 311.70039184 -33.26533286 310.28698216 C-33.2655535 308.87015502 -33.26577399 307.45332789 -33.26599431 306.03650075 C-33.26643686 303.19409295 -33.26688398 300.35168515 -33.26733398 297.50927734 C-33.26744338 296.80452513 -33.26755277 296.09977291 -33.26766547 295.37366456 C-33.27129612 272.52193429 -33.28721635 249.67023574 -33.31052435 226.81851762 C-33.33512094 202.65926184 -33.34883355 178.50002432 -33.35003543 154.34075564 C-33.35095279 141.17083068 -33.35672048 128.00094724 -33.37485504 114.83103371 C-33.39024168 103.61707423 -33.39538497 92.40316912 -33.38711694 81.18920109 C-33.38320535 75.46663937 -33.38416492 69.74418718 -33.39817429 64.02163887 C-33.41088251 58.78271609 -33.40974269 53.54398549 -33.39758357 48.30506309 C-33.39562124 46.41001305 -33.39872968 44.51494954 -33.40742794 42.61991844 C-33.41851063 40.042155 -33.41103862 37.46507102 -33.39903641 34.88732624 C-33.4066316 34.15325736 -33.41422679 33.41918848 -33.42205215 32.66287509 C-33.33216837 23.7079363 -30.3172468 15.82985675 -24.05053711 9.36499023 C-16.66610761 2.38657747 -10.0019147 -0.05637546 0 0 Z " fill="#FEB513" transform="translate(322.027099609375,245.595947265625)"/>
<path d="M0 0 C0.86453293 -0.00686325 1.72906586 -0.0137265 2.61979675 -0.02079773 C5.45511672 -0.03898052 8.28987883 -0.0352405 11.12524414 -0.02954102 C13.11007363 -0.03410684 15.09490154 -0.03941361 17.07972717 -0.04542542 C21.23127685 -0.05433976 25.38263398 -0.05195241 29.53417969 -0.04199219 C34.83789983 -0.03050369 40.14095405 -0.05072095 45.44458675 -0.07990932 C49.54114459 -0.09830988 53.63754395 -0.09797119 57.73413277 -0.0922718 C59.68883765 -0.09211907 61.64355361 -0.09812379 63.59821892 -0.11056328 C66.33803221 -0.1255449 69.07662938 -0.11474412 71.81640625 -0.09765625 C72.61304688 -0.10732422 73.4096875 -0.11699219 74.23046875 -0.12695312 C82.92642409 -0.01414616 89.81392256 3.5580213 96.11352539 9.40405273 C103.14686941 16.96933034 105.10753161 22.96383515 105.18218994 33.12753296 C105.19248049 34.02581137 105.20277104 34.92408978 105.21337342 35.84958875 C105.24666944 38.89684825 105.27257712 41.9441211 105.2980957 44.99145508 C105.31966162 47.20889092 105.34142932 49.42632481 105.36338043 51.64375687 C105.42221693 57.81690865 105.47272843 63.99010278 105.52045727 70.16334963 C105.54605264 73.47214666 105.57252699 76.7809351 105.59937714 80.08972213 C106.17727728 151.67761006 106.01794232 223.26696957 105.81917572 294.85620499 C105.81643659 295.84317635 105.81369746 296.8301477 105.81087533 297.84702729 C105.80813012 298.83520755 105.80538491 299.8233878 105.80255651 300.84151292 C105.79980835 301.83086879 105.79706018 302.82022466 105.79422873 303.83956102 C105.78866722 305.8407683 105.78309334 307.84197555 105.77750713 309.84318277 C105.73213771 326.20620347 105.70151793 342.56921877 105.67668888 358.93228228 C105.65062265 375.99036492 105.6134937 393.04839299 105.56486917 410.1064266 C105.53808523 419.58516082 105.51582065 429.06385339 105.50585175 438.54262161 C105.49740099 446.51744511 105.47879086 454.49216259 105.44674793 462.46692766 C105.43076032 466.51933434 105.41955524 470.57160326 105.42135048 474.62404442 C105.4228762 478.33043754 105.41061376 482.03652198 105.38745216 485.74284069 C105.37868793 487.71144873 105.38454682 489.68010525 105.39097953 491.64872229 C105.29635548 502.70778218 102.99917872 509.06891909 95.32055664 517.19702148 C88.56683984 523.54618952 82.22544553 524.55192962 73.21630859 524.58105469 C71.89112465 524.59091148 71.89112465 524.59091148 70.53916931 524.60096741 C67.61733917 524.62066649 64.69556038 524.63235624 61.77368164 524.64233398 C60.27354051 524.64844728 60.27354051 524.64844728 58.74309349 524.65468407 C53.44836001 524.67553158 48.15365234 524.68983833 42.85888672 524.69921875 C37.4026619 524.71027298 31.94684603 524.74466549 26.49076557 524.78439045 C22.28443161 524.8105937 18.07819451 524.81891395 13.87178612 524.82250023 C11.86124094 524.82735753 9.85069984 524.83894697 7.84023476 524.85753822 C5.01865286 524.88200578 2.19812136 524.88095062 -0.62353516 524.87402344 C-1.44516144 524.8868335 -2.26678772 524.89964355 -3.11331177 524.9128418 C-11.83105418 524.83530252 -18.88567476 521.33739546 -25.23413086 515.47045898 C-31.39293454 508.37240419 -33.18017998 500.67585648 -33.15852737 491.54998493 C-33.16058001 490.74946517 -33.16263264 489.94894541 -33.16474748 489.12416747 C-33.17042997 486.42499223 -33.16895869 483.72586781 -33.1675415 481.02668762 C-33.17012442 479.07861846 -33.17313738 477.13054984 -33.1765449 475.18248194 C-33.18462676 469.81594781 -33.18640514 464.44942703 -33.18714237 459.08288753 C-33.18899087 453.3001786 -33.19653718 447.51747664 -33.20327759 441.73477173 C-33.21686989 429.08398225 -33.22288703 416.43319594 -33.22728825 403.78240037 C-33.23004917 395.88589997 -33.23428625 387.9894008 -33.23879242 380.09290123 C-33.25098629 358.23767194 -33.26132074 336.38244379 -33.26466751 314.52721119 C-33.26488914 313.11380151 -33.26511093 311.70039184 -33.26533286 310.28698216 C-33.2655535 308.87015502 -33.26577399 307.45332789 -33.26599431 306.03650075 C-33.26643686 303.19409295 -33.26688398 300.35168515 -33.26733398 297.50927734 C-33.26744338 296.80452513 -33.26755277 296.09977291 -33.26766547 295.37366456 C-33.27129612 272.52193429 -33.28721635 249.67023574 -33.31052435 226.81851762 C-33.33512094 202.65926184 -33.34883355 178.50002432 -33.35003543 154.34075564 C-33.35095279 141.17083068 -33.35672048 128.00094724 -33.37485504 114.83103371 C-33.39024168 103.61707423 -33.39538497 92.40316912 -33.38711694 81.18920109 C-33.38320535 75.46663937 -33.38416492 69.74418718 -33.39817429 64.02163887 C-33.41088251 58.78271609 -33.40974269 53.54398549 -33.39758357 48.30506309 C-33.39562124 46.41001305 -33.39872968 44.51494954 -33.40742794 42.61991844 C-33.41851063 40.042155 -33.41103862 37.46507102 -33.39903641 34.88732624 C-33.4066316 34.15325736 -33.41422679 33.41918848 -33.42205215 32.66287509 C-33.33216837 23.7079363 -30.3172468 15.82985675 -24.05053711 9.36499023 C-16.66610761 2.38657747 -10.0019147 -0.05637546 0 0 Z " fill="#0267D6" transform="translate(322.027099609375,245.595947265625)"/>
<path d="M0 0 C0.99 1.485 0.99 1.485 2 3 C9.70487699 14.07782743 17.88524703 24.77606468 26.08398438 35.49023438 C31.91665444 43.13037813 37.67852516 50.82444512 43.359375 58.578125 C49.83965599 67.42195174 56.41492674 76.16743358 63.17578125 84.79907227 C66.78832108 89.41821003 70.28687438 94.09658969 73.703125 98.86328125 C76.94585085 103.29169767 80.28935516 107.64134578 83.625 112 C89.54502361 119.73865155 95.37185247 127.53782373 101.13134766 135.39648438 C105.13798316 140.85496575 109.23758457 146.22703214 113.38671875 151.578125 C116.59692919 155.75152382 119.69923995 160.00410548 122.8125 164.25 C128.46945025 171.96276313 134.23529661 179.58335481 140.0625 187.16796875 C143.22399236 191.28415921 146.33346107 195.43801585 149.4375 199.59765625 C151.50107858 202.34994566 153.59220225 205.08038539 155.6875 207.80859375 C162.16926663 216.25325849 168.62403947 224.71192918 174.8125 233.375 C175.29759033 234.0455542 175.78268066 234.7161084 176.2824707 235.40698242 C182.20445665 243.79372036 185.12487844 252.2686319 183.5 262.625 C181.69929331 269.54608355 175.83715763 275.15601814 170 279 C163.47641463 281.97525244 158.02701648 282.43102169 150.90917969 282.38818359 C149.82513351 282.39344055 148.74108734 282.39869751 147.62419128 282.40411377 C144.05660394 282.417268 140.48946655 282.40858907 136.921875 282.3984375 C134.42856766 282.40046013 131.93526089 282.40337314 129.44195557 282.40713501 C123.55261421 282.41211747 117.66343442 282.40165204 111.77411675 282.3856827 C105.77304851 282.37125687 99.77225799 282.38564424 93.77119064 282.40183067 C88.62196152 282.41271378 83.4728173 282.4092008 78.32358551 282.4014473 C75.86618252 282.39945595 73.40877164 282.40186682 70.95137787 282.40888596 C67.50351302 282.41657098 64.05622103 282.404796 60.60839844 282.38818359 C59.60747665 282.39425629 58.60655487 282.40032898 57.57530212 282.40658569 C44.47354294 282.29061832 34.44789999 279.03792384 24.87109375 269.98828125 C18.4616536 263.22472839 13.16306664 255.54330517 7.69140625 248.0234375 C4.13444684 243.15205203 0.46587502 238.37585565 -3.25 233.625 C-3.83885986 232.8719458 -4.42771973 232.1188916 -5.03442383 231.34301758 C-6.17193015 229.88963486 -7.30985276 228.43657783 -8.44824219 226.98388672 C-15.68777866 217.72830563 -22.7807853 208.35828332 -29.89916992 199.00952148 C-34.15624502 193.41863957 -38.41789522 187.83131934 -42.6875 182.25 C-43.47737305 181.21746094 -43.47737305 181.21746094 -44.28320312 180.1640625 C-45.85532002 178.10926114 -47.4276213 176.05460103 -49 174 C-55.37587889 165.66874539 -61.74757197 157.33440011 -68.10302734 148.98754883 C-75.8840486 138.76646099 -75.8840486 138.76646099 -83.6875 128.5625 C-84.41324219 127.61503906 -85.13898438 126.66757812 -85.88671875 125.69140625 C-87.82118106 123.14511485 -87.82118106 123.14511485 -89.41259766 121.49951172 C-92.97596824 117.64685477 -92.97596824 117.64685477 -93.09375 114.4765625 C-91.67616508 111.26674521 -89.80908298 109.01904254 -87.5 106.375 C-86.58013736 105.30780148 -85.6608782 104.24008254 -84.7421875 103.171875 C-84.2790918 102.63884766 -83.81599609 102.10582031 -83.33886719 101.55664062 C-81.38537253 99.2854003 -79.50725323 96.95540876 -77.625 94.625 C-74.19472807 90.41566983 -70.67752873 86.29311025 -67.125 82.1875 C-62.61673988 76.97038047 -58.30579666 71.63370544 -54.07910156 66.18701172 C-50.06054147 61.02711113 -45.85316671 56.04521887 -41.609375 51.0703125 C-36.61120059 45.2074904 -31.78263065 39.20412933 -26.9375 33.21484375 C-25.83354742 31.85138913 -24.72937637 30.48811138 -23.625 29.125 C-22.79754272 28.10345825 -22.79754272 28.10345825 -21.95336914 27.0612793 C-17.93518424 22.11514243 -13.83425336 17.24634491 -9.6965332 12.40014648 C-6.28507604 8.38535441 -3.09304421 4.26338527 0 0 Z " fill="#0368D6" transform="translate(554,488)"/>
<path d="M0 0 C0.33 0 0.66 0 1 0 C1.18175781 0.86882813 1.36351562 1.73765625 1.55078125 2.6328125 C2.98680179 9.88521948 2.98680179 9.88521948 5.75 16.6875 C6.1625 17.450625 6.575 18.21375 7 19 C6.67 19.66 6.34 20.32 6 21 C5.34 20.01 4.68 19.02 4 18 C3.34 18 2.68 18 2 18 C1.67 43.74 1.34 69.48 1 96 C0.67 96 0.34 96 0 96 C0 64.32 0 32.64 0 0 Z " fill="#FEFEFF" transform="translate(427,547)"/>
<path d="M0 0 C2.875 0.625 2.875 0.625 6 2 C7.25 5.0625 7.25 5.0625 8 8 C8.66 8.33 9.32 8.66 10 9 C10 9.99 10 10.98 10 12 C11.32 12 12.64 12 14 12 C14.99 14.31 15.98 16.62 17 19 C9.21843473 15.79894701 3.65030719 7.30061438 0 0 Z " fill="#7AA3E6" transform="translate(568,743)"/>
<path d="M0 0 C0 0.99 0 1.98 0 3 C-0.763125 3.226875 -1.52625 3.45375 -2.3125 3.6875 C-5.58810488 5.28721401 -6.2170365 6.89919392 -8 10 C-8.680625 10.33 -9.36125 10.66 -10.0625 11 C-12.2678413 11.86384268 -12.2678413 11.86384268 -12.9375 14.5 C-14 17 -14 17 -16.625 18.3125 C-17.40875 18.539375 -18.1925 18.76625 -19 19 C-15.93572806 12.42520292 -8.22474558 0 0 0 Z " fill="#FED78C" transform="translate(589,251)"/>
<path d="M0 0 C0.33 0.66 0.66 1.32 1 2 C0.29296875 3.7421875 0.29296875 3.7421875 -0.8125 5.875 C-3.41572142 11.39671187 -4.22660999 16.98587503 -5 23 C-5.33 23 -5.66 23 -6 23 C-6 16.07 -6 9.14 -6 2 C-5.67 2.99 -5.34 3.98 -5 5 C-4.01 5 -3.02 5 -2 5 C-1.34 3.35 -0.68 1.7 0 0 Z " fill="#FDF7E7" transform="translate(433,436)"/>
<path d="M0 0 C0.33 0 0.66 0 1 0 C1.18175781 0.86882813 1.36351562 1.73765625 1.55078125 2.6328125 C2.98680179 9.88521948 2.98680179 9.88521948 5.75 16.6875 C6.1625 17.450625 6.575 18.21375 7 19 C6.67 19.66 6.34 20.32 6 21 C5.34 20.01 4.68 19.02 4 18 C2.68 18 1.36 18 0 18 C0 12.06 0 6.12 0 0 Z " fill="#FEF7E7" transform="translate(427,547)"/>
<path d="M0 0 C0.66 0 1.32 0 2 0 C1.690625 0.5775 1.38125 1.155 1.0625 1.75 C-0.06037668 3.92531569 -0.06037668 3.92531569 -0.5 6.125 C-1 8 -1 8 -3 10 C-5.625 10.125 -5.625 10.125 -8 10 C-7.04367001 8.70684939 -6.08486149 7.41553147 -5.125 6.125 C-4.59132813 5.40570312 -4.05765625 4.68640625 -3.5078125 3.9453125 C-2 2 -2 2 0 0 Z " fill="#045BDF" transform="translate(521,529)"/>
<path d="M0 0 C1.77706209 2.66559313 2.87548273 5.0280615 4 8 C3.443125 7.835 2.88625 7.67 2.3125 7.5 C-0.18691249 6.95958649 -2.45045662 6.92917935 -5 7 C-3.35 4.69 -1.7 2.38 0 0 Z " fill="#6897E1" transform="translate(554,488)"/>
<path d="M0 0 C2.9375 0.8125 2.9375 0.8125 6 2 C7 5 7 5 7 8 C2.60841671 6.5361389 2.12052567 4.02168662 0 0 Z " fill="#699BE3" transform="translate(568,743)"/>
<path d="M0 0 C0.66 0.33 1.32 0.66 2 1 C1.505 1.433125 1.01 1.86625 0.5 2.3125 C-1.33218192 3.99740483 -1.33218192 3.99740483 -1 7 C-1.99 7 -2.98 7 -4 7 C-4.66 8.32 -5.32 9.64 -6 11 C-6.66 11 -7.32 11 -8 11 C-6.63629701 8.00779732 -5.05091917 5.70973471 -2.875 3.25 C-2.33617187 2.63640625 -1.79734375 2.0228125 -1.2421875 1.390625 C-0.62730469 0.70226562 -0.62730469 0.70226562 0 0 Z " fill="#065AE2" transform="translate(544,501)"/>
<path d="M0 0 C0.66 0.99 1.32 1.98 2 3 C-0.97 5.475 -0.97 5.475 -4 8 C-4.66 7.67 -5.32 7.34 -6 7 C-4.02 4.69 -2.04 2.38 0 0 Z " fill="#FED279" transform="translate(497,358)"/>
<path d="M0 0 C0.33 0 0.66 0 1 0 C1.3125 2.3125 1.3125 2.3125 1 5 C-1.375 6.875 -1.375 6.875 -4 8 C-4.66 7.67 -5.32 7.34 -6 7 C-5.02433888 5.83040013 -4.044375 4.66438823 -3.0625 3.5 C-2.51722656 2.8503125 -1.97195313 2.200625 -1.41015625 1.53125 C-0.71212891 0.77328125 -0.71212891 0.77328125 0 0 Z " fill="#FED37D" transform="translate(446,420)"/>
<path d="M0 0 C0.33 0.66 0.66 1.32 1 2 C1.66 2.33 2.32 2.66 3 3 C2.401875 3.268125 1.80375 3.53625 1.1875 3.8125 C-0.97224808 4.98493467 -2.35790256 6.19369282 -4 8 C-4.66 7.67 -5.32 7.34 -6 7 C-4.02 4.69 -2.04 2.38 0 0 Z " fill="#FED37B" transform="translate(469,392)"/>
<path d="M0 0 C2.5 2.3125 2.5 2.3125 5 5 C5 5.99 5 6.98 5 8 C2.5 6.25 2.5 6.25 0 4 C0 2.68 0 1.36 0 0 Z " fill="#84A7E7" transform="translate(697,681)"/>
<path d="M0 0 C2.5 2.3125 2.5 2.3125 5 5 C5 5.99 5 6.98 5 8 C2.5 6.25 2.5 6.25 0 4 C0 2.68 0 1.36 0 0 Z " fill="#8DADE9" transform="translate(558,496)"/>
<path d="M0 0 C1.125 3.75 1.125 3.75 0 6 C-1.97522846 7.04808041 -3.97481509 8.0520411 -6 9 C-4.47291037 5.56404834 -2.40072955 2.88087546 0 0 Z " fill="#FEDD98" transform="translate(485,372)"/>
<path d="M0 0 C4.31392226 0.4793247 6.16569547 1.7457985 9 5 C7.68 5.33 6.36 5.66 5 6 C5 5.34 5 4.68 5 4 C4.34 4 3.68 4 3 4 C1.375 2 1.375 2 0 0 Z " fill="#96B5EB" transform="translate(406,248)"/>
<path d="M0 0 C2.5 2.3125 2.5 2.3125 5 5 C5 5.99 5 6.98 5 8 C2.5 6.25 2.5 6.25 0 4 C0 2.68 0 1.36 0 0 Z " fill="#93B3EA" transform="translate(713,702)"/>
<path d="M0 0 C2.5 2.3125 2.5 2.3125 5 5 C5 5.99 5 6.98 5 8 C2.21611025 6.29374499 1.14615794 5.52373261 0.25 2.3125 C0.1675 1.549375 0.085 0.78625 0 0 Z " fill="#94B4EA" transform="translate(664,637)"/>
<path d="M0 0 C2.5 2.3125 2.5 2.3125 5 5 C5 5.99 5 6.98 5 8 C2.21611025 6.29374499 1.14615794 5.52373261 0.25 2.3125 C0.1675 1.549375 0.085 0.78625 0 0 Z " fill="#94B4EA" transform="translate(658,629)"/>
<path d="M0 0 C2.97 0.33 5.94 0.66 9 1 C9.33 1.99 9.66 2.98 10 4 C3.375 3.375 3.375 3.375 0 0 Z " fill="#ACC8F0" transform="translate(588,764)"/>
</svg>
